<mxfile host="app.diagrams.net" modified="2022-11-04T09:49:33.980Z" agent="5.0 (Windows NT 10.0; Win64; x64) AppleWebKit/537.36 (KHTML, like Gecko) Chrome/107.0.0.0 Safari/537.36" etag="1zslyN1UdM6lKmvu5lco" version="20.5.1" type="github">
  <diagram id="R2lEEEUBdFMjLlhIrx00" name="Page-1">
    <mxGraphModel dx="1736" dy="1747" grid="1" gridSize="10" guides="1" tooltips="1" connect="1" arrows="0" fold="1" page="1" pageScale="1" pageWidth="1169" pageHeight="827" math="0" shadow="0" extFonts="Permanent Marker^https://fonts.googleapis.com/css?family=Permanent+Marker">
      <root>
        <mxCell id="0" />
        <mxCell id="1" parent="0" />
        <mxCell id="H4ovYLmENnHMqPd44oOz-23" value="" style="edgeStyle=none;rounded=0;orthogonalLoop=1;jettySize=auto;html=1;fontSize=18;endArrow=none;endFill=0;" parent="1" source="H4ovYLmENnHMqPd44oOz-1" target="H4ovYLmENnHMqPd44oOz-20" edge="1">
          <mxGeometry relative="1" as="geometry" />
        </mxCell>
        <mxCell id="H4ovYLmENnHMqPd44oOz-28" value="(1,1)" style="edgeLabel;html=1;align=center;verticalAlign=middle;resizable=0;points=[];fontSize=18;" parent="H4ovYLmENnHMqPd44oOz-23" connectable="0" vertex="1">
          <mxGeometry x="-0.2556" relative="1" as="geometry">
            <mxPoint as="offset" />
          </mxGeometry>
        </mxCell>
        <mxCell id="H4ovYLmENnHMqPd44oOz-38" value="" style="edgeStyle=none;rounded=0;orthogonalLoop=1;jettySize=auto;html=1;fontSize=13;endArrow=none;endFill=0;" parent="1" source="H4ovYLmENnHMqPd44oOz-1" target="H4ovYLmENnHMqPd44oOz-37" edge="1">
          <mxGeometry relative="1" as="geometry" />
        </mxCell>
        <mxCell id="H4ovYLmENnHMqPd44oOz-40" value="(1,n)" style="edgeLabel;html=1;align=center;verticalAlign=middle;resizable=0;points=[];fontSize=13;" parent="H4ovYLmENnHMqPd44oOz-38" connectable="0" vertex="1">
          <mxGeometry x="-0.36" y="2" relative="1" as="geometry">
            <mxPoint as="offset" />
          </mxGeometry>
        </mxCell>
        <mxCell id="H4ovYLmENnHMqPd44oOz-1" value="&lt;font style=&quot;font-size: 18px;&quot;&gt;EMPLEADO&lt;/font&gt;" style="whiteSpace=wrap;html=1;align=center;fillColor=#a20025;fontColor=#ffffff;strokeColor=#6F0000;" parent="1" vertex="1">
          <mxGeometry x="140" y="437" width="120" height="60" as="geometry" />
        </mxCell>
        <mxCell id="H4ovYLmENnHMqPd44oOz-21" value="" style="edgeStyle=none;rounded=0;orthogonalLoop=1;jettySize=auto;html=1;fontSize=18;endArrow=none;endFill=0;" parent="1" source="H4ovYLmENnHMqPd44oOz-4" target="H4ovYLmENnHMqPd44oOz-20" edge="1">
          <mxGeometry relative="1" as="geometry" />
        </mxCell>
        <mxCell id="H4ovYLmENnHMqPd44oOz-29" value="(1,1)" style="edgeLabel;html=1;align=center;verticalAlign=middle;resizable=0;points=[];fontSize=18;" parent="H4ovYLmENnHMqPd44oOz-21" connectable="0" vertex="1">
          <mxGeometry x="-0.6444" y="-3" relative="1" as="geometry">
            <mxPoint as="offset" />
          </mxGeometry>
        </mxCell>
        <mxCell id="H4ovYLmENnHMqPd44oOz-4" value="&lt;font style=&quot;font-size: 18px;&quot;&gt;CLIENTE&lt;/font&gt;" style="whiteSpace=wrap;html=1;fillColor=#a20025;fontColor=#ffffff;strokeColor=#6F0000;" parent="1" vertex="1">
          <mxGeometry x="300" y="277" width="120" height="60" as="geometry" />
        </mxCell>
        <mxCell id="H4ovYLmENnHMqPd44oOz-10" value="&lt;span style=&quot;font-weight: normal;&quot;&gt;Empleado: &lt;u&gt;CodEmpleado&lt;/u&gt;, Nombre, Apellidos, Teléfono, Correo, NumCuenta&lt;br&gt;Cliente: &lt;u&gt;DNI&lt;/u&gt;, Nombre, Apellidos, Teléfono, Correo&lt;br&gt;Móvil: &lt;u&gt;Código&lt;/u&gt;, PrecioCoste, PrecioVenta&lt;br&gt;NombreMovil: &lt;u&gt;Código&lt;/u&gt;, Fabricante, Marca, Modelo&lt;br&gt;Tienda: &lt;u&gt;Domicilio&lt;/u&gt;, Teléfono, PrecioAlquiler&lt;br&gt;Proveedor: &lt;u&gt;CodProveedor&lt;/u&gt;, Nombre, Teléfono.&lt;br&gt;&lt;/span&gt;" style="text;strokeColor=none;fillColor=none;html=1;fontSize=24;fontStyle=1;verticalAlign=middle;align=left;resizeWidth=0;resizable=1;fixedWidth=0;movable=1;movableLabel=0;imageHeight=24;fillOpacity=100;" parent="1" vertex="1">
          <mxGeometry x="20" y="-820" width="960" height="230" as="geometry" />
        </mxCell>
        <mxCell id="H4ovYLmENnHMqPd44oOz-22" value="" style="edgeStyle=none;rounded=0;orthogonalLoop=1;jettySize=auto;html=1;fontSize=18;endArrow=none;endFill=0;" parent="1" source="H4ovYLmENnHMqPd44oOz-11" target="H4ovYLmENnHMqPd44oOz-20" edge="1">
          <mxGeometry relative="1" as="geometry" />
        </mxCell>
        <mxCell id="H4ovYLmENnHMqPd44oOz-27" value="(1,1)" style="edgeLabel;html=1;align=center;verticalAlign=middle;resizable=0;points=[];fontSize=18;" parent="H4ovYLmENnHMqPd44oOz-22" connectable="0" vertex="1">
          <mxGeometry x="-0.4848" y="-3" relative="1" as="geometry">
            <mxPoint as="offset" />
          </mxGeometry>
        </mxCell>
        <mxCell id="H4ovYLmENnHMqPd44oOz-32" value="" style="edgeStyle=none;rounded=0;orthogonalLoop=1;jettySize=auto;html=1;fontSize=18;endArrow=none;endFill=0;" parent="1" source="H4ovYLmENnHMqPd44oOz-11" target="H4ovYLmENnHMqPd44oOz-31" edge="1">
          <mxGeometry relative="1" as="geometry" />
        </mxCell>
        <mxCell id="H4ovYLmENnHMqPd44oOz-35" value="(1,1)" style="edgeLabel;html=1;align=center;verticalAlign=middle;resizable=0;points=[];fontSize=18;" parent="H4ovYLmENnHMqPd44oOz-32" connectable="0" vertex="1">
          <mxGeometry x="-0.2933" relative="1" as="geometry">
            <mxPoint as="offset" />
          </mxGeometry>
        </mxCell>
        <mxCell id="H4ovYLmENnHMqPd44oOz-43" value="" style="edgeStyle=none;rounded=0;orthogonalLoop=1;jettySize=auto;html=1;fontSize=13;endArrow=none;endFill=0;" parent="1" source="H4ovYLmENnHMqPd44oOz-11" target="H4ovYLmENnHMqPd44oOz-42" edge="1">
          <mxGeometry relative="1" as="geometry" />
        </mxCell>
        <mxCell id="H4ovYLmENnHMqPd44oOz-50" value="(1,1)" style="edgeLabel;html=1;align=center;verticalAlign=middle;resizable=0;points=[];fontSize=13;" parent="H4ovYLmENnHMqPd44oOz-43" connectable="0" vertex="1">
          <mxGeometry x="-0.7667" y="2" relative="1" as="geometry">
            <mxPoint as="offset" />
          </mxGeometry>
        </mxCell>
        <mxCell id="H4ovYLmENnHMqPd44oOz-11" value="&lt;font style=&quot;font-size: 18px;&quot;&gt;MÓVIL&lt;/font&gt;" style="whiteSpace=wrap;html=1;fillColor=#a20025;fontColor=#ffffff;strokeColor=#6F0000;" parent="1" vertex="1">
          <mxGeometry x="520" y="437" width="120" height="60" as="geometry" />
        </mxCell>
        <mxCell id="H4ovYLmENnHMqPd44oOz-33" value="" style="edgeStyle=none;rounded=0;orthogonalLoop=1;jettySize=auto;html=1;fontSize=18;endArrow=none;endFill=0;" parent="1" source="H4ovYLmENnHMqPd44oOz-17" target="H4ovYLmENnHMqPd44oOz-31" edge="1">
          <mxGeometry relative="1" as="geometry" />
        </mxCell>
        <mxCell id="H4ovYLmENnHMqPd44oOz-34" value="(1,1)" style="edgeLabel;html=1;align=center;verticalAlign=middle;resizable=0;points=[];fontSize=18;" parent="H4ovYLmENnHMqPd44oOz-33" connectable="0" vertex="1">
          <mxGeometry x="-0.4833" y="2" relative="1" as="geometry">
            <mxPoint as="offset" />
          </mxGeometry>
        </mxCell>
        <mxCell id="H4ovYLmENnHMqPd44oOz-17" value="&lt;font style=&quot;font-size: 18px;&quot;&gt;NOMBRE_MÓVIL&lt;/font&gt;" style="whiteSpace=wrap;html=1;fillColor=#a20025;fontColor=#ffffff;strokeColor=#6F0000;" parent="1" vertex="1">
          <mxGeometry x="850" y="437" width="180" height="60" as="geometry" />
        </mxCell>
        <mxCell id="H4ovYLmENnHMqPd44oOz-46" value="" style="edgeStyle=none;rounded=0;orthogonalLoop=1;jettySize=auto;html=1;fontSize=13;endArrow=none;endFill=0;entryX=0;entryY=0.5;entryDx=0;entryDy=0;" parent="1" source="H4ovYLmENnHMqPd44oOz-18" target="H4ovYLmENnHMqPd44oOz-42" edge="1">
          <mxGeometry relative="1" as="geometry">
            <mxPoint x="340" y="657" as="targetPoint" />
          </mxGeometry>
        </mxCell>
        <mxCell id="H4ovYLmENnHMqPd44oOz-49" value="(1,1)" style="edgeLabel;html=1;align=center;verticalAlign=middle;resizable=0;points=[];fontSize=13;" parent="H4ovYLmENnHMqPd44oOz-46" connectable="0" vertex="1">
          <mxGeometry x="-0.8738" relative="1" as="geometry">
            <mxPoint as="offset" />
          </mxGeometry>
        </mxCell>
        <mxCell id="H4ovYLmENnHMqPd44oOz-18" value="&lt;font style=&quot;font-size: 18px;&quot;&gt;TIENDA&lt;br&gt;&lt;/font&gt;" style="whiteSpace=wrap;html=1;fillColor=#a20025;fontColor=#ffffff;strokeColor=#6F0000;" parent="1" vertex="1">
          <mxGeometry x="140" y="627" width="120" height="60" as="geometry" />
        </mxCell>
        <mxCell id="H4ovYLmENnHMqPd44oOz-19" value="&lt;font style=&quot;font-size: 18px;&quot;&gt;PROVEEDOR&lt;br&gt;&lt;/font&gt;" style="whiteSpace=wrap;html=1;fillColor=#a20025;fontColor=#ffffff;strokeColor=#6F0000;" parent="1" vertex="1">
          <mxGeometry x="505" y="767" width="150" height="60" as="geometry" />
        </mxCell>
        <mxCell id="H4ovYLmENnHMqPd44oOz-20" value="compra" style="rhombus;whiteSpace=wrap;html=1;fontSize=18;fillColor=#6a00ff;fontColor=#ffffff;strokeColor=#3700CC;" parent="1" vertex="1">
          <mxGeometry x="320" y="427" width="80" height="80" as="geometry" />
        </mxCell>
        <mxCell id="H4ovYLmENnHMqPd44oOz-24" value="numero" style="ellipse;whiteSpace=wrap;html=1;align=center;fontSize=18;fillColor=#60a917;fontColor=#ffffff;strokeColor=#2D7600;" parent="1" vertex="1">
          <mxGeometry x="410" y="377" width="100" height="40" as="geometry" />
        </mxCell>
        <mxCell id="H4ovYLmENnHMqPd44oOz-26" value="" style="endArrow=none;html=1;rounded=0;fontSize=18;exitX=1;exitY=0;exitDx=0;exitDy=0;entryX=0;entryY=1;entryDx=0;entryDy=0;" parent="1" source="H4ovYLmENnHMqPd44oOz-20" target="H4ovYLmENnHMqPd44oOz-24" edge="1">
          <mxGeometry relative="1" as="geometry">
            <mxPoint x="370" y="517" as="sourcePoint" />
            <mxPoint x="530" y="517" as="targetPoint" />
          </mxGeometry>
        </mxCell>
        <mxCell id="H4ovYLmENnHMqPd44oOz-30" value="1:1:1" style="text;strokeColor=none;fillColor=none;spacingLeft=4;spacingRight=4;overflow=hidden;rotatable=0;points=[[0,0.5],[1,0.5]];portConstraint=eastwest;fontSize=13;" parent="1" vertex="1">
          <mxGeometry x="340" y="507" width="40" height="30" as="geometry" />
        </mxCell>
        <mxCell id="H4ovYLmENnHMqPd44oOz-31" value="tiene" style="rhombus;whiteSpace=wrap;html=1;fillColor=#6a00ff;fontColor=#ffffff;strokeColor=#3700CC;" parent="1" vertex="1">
          <mxGeometry x="690" y="427" width="80" height="80" as="geometry" />
        </mxCell>
        <mxCell id="H4ovYLmENnHMqPd44oOz-36" value="1:1" style="text;strokeColor=none;fillColor=none;spacingLeft=4;spacingRight=4;overflow=hidden;rotatable=0;points=[[0,0.5],[1,0.5]];portConstraint=eastwest;fontSize=13;" parent="1" vertex="1">
          <mxGeometry x="719" y="397" width="40" height="30" as="geometry" />
        </mxCell>
        <mxCell id="H4ovYLmENnHMqPd44oOz-39" value="" style="edgeStyle=none;rounded=0;orthogonalLoop=1;jettySize=auto;html=1;fontSize=13;endArrow=none;endFill=0;" parent="1" source="H4ovYLmENnHMqPd44oOz-37" target="H4ovYLmENnHMqPd44oOz-18" edge="1">
          <mxGeometry relative="1" as="geometry" />
        </mxCell>
        <mxCell id="H4ovYLmENnHMqPd44oOz-41" value="(1,1)" style="edgeLabel;html=1;align=center;verticalAlign=middle;resizable=0;points=[];fontSize=13;" parent="H4ovYLmENnHMqPd44oOz-39" connectable="0" vertex="1">
          <mxGeometry x="0.4933" y="-1" relative="1" as="geometry">
            <mxPoint as="offset" />
          </mxGeometry>
        </mxCell>
        <mxCell id="H4ovYLmENnHMqPd44oOz-37" value="trabaja" style="rhombus;whiteSpace=wrap;html=1;fillColor=#6a00ff;fontColor=#ffffff;strokeColor=#3700CC;" parent="1" vertex="1">
          <mxGeometry x="160" y="547" width="80" height="30" as="geometry" />
        </mxCell>
        <mxCell id="H4ovYLmENnHMqPd44oOz-44" value="" style="edgeStyle=none;rounded=0;orthogonalLoop=1;jettySize=auto;html=1;fontSize=13;endArrow=none;endFill=0;" parent="1" source="H4ovYLmENnHMqPd44oOz-42" target="H4ovYLmENnHMqPd44oOz-19" edge="1">
          <mxGeometry relative="1" as="geometry" />
        </mxCell>
        <mxCell id="H4ovYLmENnHMqPd44oOz-51" value="(1,1)" style="edgeLabel;html=1;align=center;verticalAlign=middle;resizable=0;points=[];fontSize=13;" parent="H4ovYLmENnHMqPd44oOz-44" connectable="0" vertex="1">
          <mxGeometry x="0.5048" y="-1" relative="1" as="geometry">
            <mxPoint as="offset" />
          </mxGeometry>
        </mxCell>
        <mxCell id="H4ovYLmENnHMqPd44oOz-42" value="compra" style="rhombus;whiteSpace=wrap;html=1;fillColor=#6a00ff;fontColor=#ffffff;strokeColor=#3700CC;" parent="1" vertex="1">
          <mxGeometry x="540" y="617" width="80" height="80" as="geometry" />
        </mxCell>
        <mxCell id="H4ovYLmENnHMqPd44oOz-47" value="cantidad" style="ellipse;whiteSpace=wrap;html=1;align=center;fontSize=13;fillColor=#60a917;fontColor=#ffffff;strokeColor=#2D7600;" parent="1" vertex="1">
          <mxGeometry x="655" y="607" width="100" height="40" as="geometry" />
        </mxCell>
        <mxCell id="H4ovYLmENnHMqPd44oOz-48" value="" style="endArrow=none;html=1;rounded=0;fontSize=13;entryX=0;entryY=1;entryDx=0;entryDy=0;exitX=1;exitY=0.5;exitDx=0;exitDy=0;" parent="1" source="H4ovYLmENnHMqPd44oOz-42" target="H4ovYLmENnHMqPd44oOz-47" edge="1">
          <mxGeometry relative="1" as="geometry">
            <mxPoint x="280" y="677" as="sourcePoint" />
            <mxPoint x="440" y="677" as="targetPoint" />
          </mxGeometry>
        </mxCell>
        <mxCell id="nHZMRzlQvYpWQ6ptfXkq-1" value="1:1" style="text;strokeColor=none;fillColor=none;spacingLeft=4;spacingRight=4;overflow=hidden;rotatable=0;points=[[0,0.5],[1,0.5]];portConstraint=eastwest;fontSize=13;" parent="1" vertex="1">
          <mxGeometry x="520" y="627" width="40" height="30" as="geometry" />
        </mxCell>
        <mxCell id="nHZMRzlQvYpWQ6ptfXkq-2" value="1:N" style="text;strokeColor=none;fillColor=none;spacingLeft=4;spacingRight=4;overflow=hidden;rotatable=0;points=[[0,0.5],[1,0.5]];portConstraint=eastwest;fontSize=13;" parent="1" vertex="1">
          <mxGeometry x="250" y="547" width="40" height="30" as="geometry" />
        </mxCell>
      </root>
    </mxGraphModel>
  </diagram>
</mxfile>
